<svg width="1256" height="2194" viewBox="0 0 1256 2194" fill="none" xmlns="http://www.w3.org/2000/svg">
  <path d="M159 7L535 383" stroke="#1F1F1F" stroke-width="19" />
  <path d="M84.9999 78L461 454" stroke="#1F1F1F" stroke-width="19" />
  <path d="M650 266L1290 901" stroke="#1F1F1F" stroke-width="19" />
  <path d="M393 541L769 917" stroke="#1F1F1F" stroke-width="19" />
  <path d="M915 765L1291 1141" stroke="#1F1F1F" stroke-width="19" />
  <path d="M322.485 601.48L696.773 223.776" stroke="#1F1F1F" stroke-width="19" />
  <path d="M-196 1878.5L1199 469" stroke="#1F1F1F" stroke-width="19" />
  <path d="M-921.625 2026.5L473.372 617" stroke="#1F1F1F" stroke-width="19" />
  <path d="M-772.625 2186.5L622.372 777" stroke="#1F1F1F" stroke-width="19" />
  <path d="M698 224.5C736.833 181.333 814.599 108.601 889 183C895.5 189.5 1195.83 467.333 1293.5 560.5" stroke="#1F1F1F" stroke-width="19" />
  <path d="M349.5 572C310.667 615.167 232.901 687.899 158.5 613.5C152 607 -148.333 329.167 -246 236" stroke="#1F1F1F" stroke-width="19" />
  <rect x="570.731" y="216.968" width="50" height="97.1998" transform="rotate(45 570.731 216.968)" fill="#1F1F1F" />
  <rect x="476.698" y="200" width="50" height="42" transform="rotate(45 476.698 200)" fill="#1F1F1F" />
  <rect x="649.698" y="326" width="50" height="42" transform="rotate(45 649.698 326)" fill="#1F1F1F" />
  <rect x="476.698" y="510" width="50" height="42" transform="rotate(45 476.698 510)" fill="#1F1F1F" />
  <rect x="258" y="892.355" width="50" height="42" transform="rotate(-45 258 892.355)" fill="#1F1F1F" />
  <rect x="328.648" y="379.949" width="112.296" height="110.353" transform="rotate(45 328.648 379.949)" fill="#1F1F1F" />
  <rect x="772.698" y="449" width="94.5719" height="42" transform="rotate(45 772.698 449)" fill="#1F1F1F" />
  <rect x="707.698" y="384" width="50" height="42" transform="rotate(45 707.698 384)" fill="#1F1F1F" />
  <rect x="534.698" y="568" width="50" height="42" transform="rotate(45 534.698 568)" fill="#1F1F1F" />
  <rect x="316" y="834.355" width="50" height="42" transform="rotate(-45 316 834.355)" fill="#1F1F1F" />
  <rect x="657.698" y="689" width="50" height="42" transform="rotate(45 657.698 689)" fill="#1F1F1F" />
  <rect x="437" y="711.355" width="50" height="42" transform="rotate(-45 437 711.355)" fill="#1F1F1F" />
  <rect x="867.698" y="541" width="50" height="42" transform="rotate(45 867.698 541)" fill="#1F1F1F" />
  <rect x="594.698" y="628" width="50" height="42" transform="rotate(45 594.698 628)" fill="#1F1F1F" />
  <rect x="376" y="774.355" width="50" height="42" transform="rotate(-45 376 774.355)" fill="#1F1F1F" />
  <rect x="718.698" y="748" width="101.903" height="42" transform="rotate(45 718.698 748)" fill="#1F1F1F" />
  <rect x="932.698" y="606" width="50" height="94.5074" transform="rotate(45 932.698 606)" fill="#1F1F1F" />
  <rect x="422.698" y="145" width="50" height="42" transform="rotate(45 422.698 145)" fill="#1F1F1F" />
  <path d="M1146.5 519.5C1051.7 426.3 945 480.666 903.5 519.5L1024 643L1146.5 519.5Z" fill="#1F1F1F" />
</svg>
